<svg xmlns="http://www.w3.org/2000/svg" viewBox="0 0 1600 1000" preserveAspectRatio="xMidYMid slice">
  <defs>
    <linearGradient id="wall" x1="0" y1="0" x2="0" y2="1">
      <stop offset="0" stop-color="#3c2b18"></stop>
      <stop offset="1" stop-color="#2b1e11"></stop>
    </linearGradient>
    <linearGradient id="floor" x1="0" y1="0" x2="0" y2="1">
      <stop offset="0" stop-color="#22170d"></stop>
      <stop offset="1" stop-color="#43311c"></stop>
    </linearGradient>
    <radialGradient id="lamp" cx="0.5" cy="0.1" r="0.62">
      <stop offset="0" stop-color="#ffe2a8" stop-opacity="0.28"></stop>
      <stop offset="0.55" stop-color="#ffe2a8" stop-opacity="0.06"></stop>
      <stop offset="1" stop-color="#ffe2a8" stop-opacity="0"></stop>
    </radialGradient>
    <radialGradient id="vig" cx="0.5" cy="0.4" r="0.78">
      <stop offset="0" stop-color="#000000" stop-opacity="0"></stop>
      <stop offset="0.66" stop-color="#000000" stop-opacity="0"></stop>
      <stop offset="1" stop-color="#000000" stop-opacity="0.52"></stop>
    </radialGradient>
  </defs>

  <rect x="0" y="0" width="1600" height="656" fill="url(#wall)"></rect>
  <rect x="0" y="0" width="1600" height="656" fill="url(#lamp)"></rect>

  <rect x="0" y="654" width="1600" height="346" fill="url(#floor)"></rect>
  <rect x="0" y="646" width="1600" height="16" fill="#000000" opacity="0.32"></rect>

  <g stroke="#000000" stroke-opacity="0.22" stroke-width="2.5">
    <line x1="800" y1="654" x2="-260" y2="1000"></line>
    <line x1="800" y1="654" x2="170" y2="1000"></line>
    <line x1="800" y1="654" x2="470" y2="1000"></line>
    <line x1="800" y1="654" x2="800" y2="1000"></line>
    <line x1="800" y1="654" x2="1130" y2="1000"></line>
    <line x1="800" y1="654" x2="1430" y2="1000"></line>
    <line x1="800" y1="654" x2="1860" y2="1000"></line>
  </g>
  <g stroke="#ffe9c8" stroke-opacity="0.05" stroke-width="2.5">
    <line x1="800" y1="654" x2="320" y2="1000"></line>
    <line x1="800" y1="654" x2="980" y2="1000"></line>
  </g>
  <g stroke="#000000" stroke-opacity="0.15" stroke-width="2">
    <line x1="0" y1="712" x2="1600" y2="712"></line>
    <line x1="0" y1="792" x2="1600" y2="792"></line>
    <line x1="0" y1="896" x2="1600" y2="896"></line>
  </g>

  <rect x="0" y="0" width="1600" height="1000" fill="url(#vig)"></rect>
</svg>